{"accessors" : [{"bufferView" : 0, "byteOffset" : 0, "componentType" : 5123, "count" : 5352, "type" : "SCALAR", "max" : [5351], "min" : [0]}, {"bufferView" : 1, "byteOffset" : 0, "componentType" : 5126, "count" : 5352, "type" : "VEC3", "max" : [1344.0521240234375, 2021.257080078125, 1128.589111328125], "min" : [-1663.109375, -5.0268095947103575E-05, -1152.7454833984375], "name" : "POSITION"}, {"bufferView" : 1, "byteOffset" : 12, "componentType" : 5126, "count" : 5352, "type" : "VEC3", "max" : [0.9943224191665649, 1.0000044107437134, 1.0000044107437134], "min" : [-1.0000042915344238, -0.8192759156227112, -1.0000044107437134], "name" : "NORMAL"}, {"bufferView" : 1, "byteOffset" : 24, "componentType" : 5126, "count" : 5352, "type" : "VEC2", "max" : [1.7821863889694214, 0.9748978018760681], "min" : [-0.48362067341804504, 0.025984466075897217], "name" : "TEXCOORD_0"}], "asset" : {"generator" : "Aspose.3D 24.6.0", "version" : "2.0"}, "buffers" : [{"uri" : "data:application/octet-stream;base64,", "byteLength" : 181976}], "bufferViews" : [{"buffer" : 0, "byteOffset" : 0, "byteLength" : 10704, "target" : 34963}, {"buffer" : 0, "byteOffset" : 10708, "byteLength" : 171264, "byteStride" : 32, "target" : 34962}], "materials" : [{"name" : "Material #25.003", "pbrMetallicRoughness" : {"baseColorFactor" : [0.5879999995231628, 0.5879999995231628, 0.5879999995231628, 1], "metallicFactor" : 1, "roughnessFactor" : 1}, "emissiveFactor" : [0.5879999995231628, 0.5879999995231628, 0.5879999995231628], "alphaMode" : "OPAQUE", "doubleSided" : false}], "meshes" : [{"primitives" : [{"attributes" : {"POSITION" : 1, "NORMAL" : 2, "TEXCOORD_0" : 3}, "indices" : 0, "material" : 0, "mode" : 4}], "name" : "Mesh.003"}], "nodes" : [{"mesh" : 0, "name" : "Mountain_winter_009"}], "scene" : 0, "scenes" : [{"nodes" : [0]}]}