{"accessors" : [{"bufferView" : 0, "byteOffset" : 0, "componentType" : 5123, "count" : 4914, "type" : "SCALAR", "max" : [4913], "min" : [0]}, {"bufferView" : 1, "byteOffset" : 0, "componentType" : 5126, "count" : 4914, "type" : "VEC3", "max" : [2068.778076171875, 2514.783203125, 1150], "min" : [-2068.778076171875, -5.0268095947103575E-05, -1150], "name" : "POSITION"}, {"bufferView" : 1, "byteOffset" : 12, "componentType" : 5126, "count" : 4914, "type" : "VEC3", "max" : [0.9915502071380615, 1.0000044107437134, 0.9992824196815491], "min" : [-0.9851559400558472, -0.922436535358429, -0.9994735717773438], "name" : "NORMAL"}, {"bufferView" : 1, "byteOffset" : 24, "componentType" : 5126, "count" : 4914, "type" : "VEC2", "max" : [1.407414436340332, 0.9649860262870789], "min" : [-0.2160419225692749, 0.021338045597076416], "name" : "TEXCOORD_0"}], "asset" : {"generator" : "Aspose.3D 24.9.1", "version" : "2.0"}, "buffers" : [{"uri" : "data:application/octet-stream;base64,", "byteLength" : 167084}], "bufferViews" : [{"buffer" : 0, "byteOffset" : 0, "byteLength" : 9828, "target" : 34963}, {"buffer" : 0, "byteOffset" : 9832, "byteLength" : 157248, "byteStride" : 32, "target" : 34962}], "materials" : [{"name" : "Material #25.002", "pbrMetallicRoughness" : {"baseColorFactor" : [0.5879999995231628, 0.5879999995231628, 0.5879999995231628, 1], "metallicFactor" : 1, "roughnessFactor" : 1}, "emissiveFactor" : [0.5879999995231628, 0.5879999995231628, 0.5879999995231628], "alphaMode" : "OPAQUE", "doubleSided" : false}], "meshes" : [{"primitives" : [{"attributes" : {"POSITION" : 1, "NORMAL" : 2, "TEXCOORD_0" : 3}, "indices" : 0, "material" : 0, "mode" : 4}], "name" : "Mesh.003"}], "nodes" : [{"mesh" : 0, "name" : "Mountain_winter_003"}], "scene" : 0, "scenes" : [{"nodes" : [0]}]}