{"accessors" : [{"bufferView" : 0, "byteOffset" : 0, "componentType" : 5123, "count" : 5412, "type" : "SCALAR", "max" : [5411], "min" : [0]}, {"bufferView" : 1, "byteOffset" : 0, "componentType" : 5126, "count" : 5412, "type" : "VEC3", "max" : [1563.4732666015625, 2177.5859375, 1295.815185546875], "min" : [-1639.835693359375, -5.54711623408366E-05, -1280.34716796875], "name" : "POSITION"}, {"bufferView" : 1, "byteOffset" : 12, "componentType" : 5126, "count" : 5412, "type" : "VEC3", "max" : [1.0000042915344238, 1.0000044107437134, 0.997113823890686], "min" : [-1.0000044107437134, -0.8979348540306091, -1.0000044107437134], "name" : "NORMAL"}, {"bufferView" : 1, "byteOffset" : 24, "componentType" : 5126, "count" : 5412, "type" : "VEC2", "max" : [1.5667645931243896, 0.9726062417030334], "min" : [-0.7146307826042175, 0.023686707019805908], "name" : "TEXCOORD_0"}], "asset" : {"generator" : "Aspose.3D 24.9.1", "version" : "2.0"}, "buffers" : [{"uri" : "data:application/octet-stream;base64,", "byteLength" : 184016}], "bufferViews" : [{"buffer" : 0, "byteOffset" : 0, "byteLength" : 10824, "target" : 34963}, {"buffer" : 0, "byteOffset" : 10828, "byteLength" : 173184, "byteStride" : 32, "target" : 34962}], "materials" : [{"name" : "Material #25.001", "pbrMetallicRoughness" : {"baseColorFactor" : [0.5879999995231628, 0.5879999995231628, 0.5879999995231628, 1], "metallicFactor" : 1, "roughnessFactor" : 1}, "emissiveFactor" : [0.5879999995231628, 0.5879999995231628, 0.5879999995231628], "alphaMode" : "OPAQUE", "doubleSided" : false}], "meshes" : [{"primitives" : [{"attributes" : {"POSITION" : 1, "NORMAL" : 2, "TEXCOORD_0" : 3}, "indices" : 0, "material" : 0, "mode" : 4}], "name" : "Mesh.001"}], "nodes" : [{"mesh" : 0, "name" : "Mountain_winter_007"}], "scene" : 0, "scenes" : [{"nodes" : [0]}]}